<svg width="48" height="48" viewBox="0 0 48 48" fill="none" xmlns="http://www.w3.org/2000/svg">
<path d="M28.0364 28.869C27.1623 28.869 26.3171 28.8836 25.4725 28.8654C24.3746 28.8417 23.9932 28.3058 23.9599 27.3455C23.9404 26.7825 23.9765 26.2173 23.9485 25.655C23.9329 25.3437 23.8831 25.0176 23.767 24.7315C23.5739 24.2558 23.1409 24.0847 22.6583 24.0293C22.5817 24.0205 22.5031 24.028 22.4254 24.028C15.093 24.028 7.76055 24.028 0.428122 24.028C0.302301 24.028 0.176466 24.028 0.0127372 24.028C-0.0551251 22.348 0.155264 20.711 0.475279 19.0704C0.617607 19.0704 0.723463 19.0704 0.829319 19.0704C7.97721 19.0704 15.1251 19.0695 22.273 19.0739C22.5208 19.074 22.7797 19.0889 23.0143 19.1602C23.7038 19.3696 23.8747 19.6517 23.9454 20.3476C24.0147 21.0292 24.0235 21.7205 24.0081 22.4064C23.9847 23.4448 24.6638 23.9599 25.593 23.967C26.9428 23.9774 28.2928 23.9697 29.6428 23.9697C35.6156 23.9697 41.5883 23.9697 47.5611 23.9697C47.6852 23.9697 47.8094 23.9697 48 23.9697C47.95 24.8138 47.9278 25.6312 47.846 26.4426C47.7654 27.2422 47.6244 28.0358 47.5045 28.869C41.0138 28.869 34.5396 28.869 28.0364 28.869Z" fill="#69A3FF"/>
<path d="M23.8381 29.6443C23.9789 30.2295 24.0188 30.7896 23.9818 31.3757C23.9457 31.947 23.902 32.5546 24.2303 33.0865C24.4899 33.507 24.8825 33.7077 25.3662 33.7079C32.068 33.7111 38.7698 33.71 45.4716 33.71C45.5966 33.71 45.7216 33.71 45.8998 33.71C45.8123 33.93 45.7497 34.1172 45.6655 34.2939C44.9695 35.7549 44.1173 37.1217 43.164 38.427C43.0393 38.5978 42.8948 38.6747 42.6642 38.6744C36.9142 38.6659 31.1643 38.6677 25.4143 38.6676C24.5213 38.6676 23.9581 38.1028 23.9565 37.2046C23.9555 36.602 23.9565 35.9994 23.9563 35.3968C23.9559 34.3507 23.3756 33.7684 22.3336 33.7684C15.6998 33.7684 9.06592 33.7669 2.43208 33.7736C2.16269 33.7739 2.0157 33.7284 1.89763 33.4439C1.27941 31.9543 0.793905 30.4272 0.458862 28.8107C0.589763 28.8107 0.693997 28.8107 0.798216 28.8107C7.84971 28.8107 14.9012 28.8091 21.9527 28.8156C22.2857 28.8159 22.6205 28.8766 22.9512 28.9291C23.3682 28.9954 23.6852 29.2054 23.8381 29.6443Z" fill="#69A3FF"/>
<path d="M4.00405 10.652C4.28115 10.2587 4.54803 9.88433 4.81051 9.50686C5.01477 9.21313 5.34864 9.37426 5.60921 9.27586C5.68573 9.24696 5.78237 9.27131 5.86978 9.27131C11.3674 9.2713 16.8651 9.26879 22.3628 9.27595C22.8145 9.27654 23.2563 9.34369 23.6085 9.70068C23.8453 9.94071 23.9295 10.2334 23.9481 10.5341C23.9924 11.2485 24.0104 11.9654 24.0106 12.6814C24.0109 13.4943 24.4308 14.0622 25.2909 14.1133C25.6178 14.1327 25.9447 14.168 26.2715 14.1682C32.08 14.1716 37.8885 14.1723 43.697 14.1681C44.3057 14.1676 44.9144 14.1347 45.5229 14.1108C45.7539 14.1017 45.8985 14.1908 45.9927 14.4088C46.5946 15.8017 47.0717 17.2343 47.3876 18.7195C47.4132 18.8395 47.4328 18.9608 47.4638 19.1283C47.3372 19.1283 47.2441 19.1283 47.151 19.1283C39.9827 19.1283 32.8144 19.1312 25.6461 19.1211C25.2124 19.1204 24.765 19.0796 24.4112 18.7435C24.0945 18.4427 23.974 18.0664 23.961 17.6551C23.9426 17.0725 23.9532 16.4888 23.957 15.9057C23.9649 14.714 23.3285 14.1858 22.2302 14.177C19.7244 14.1568 17.2183 14.1706 14.7123 14.1706C10.623 14.1706 6.53376 14.1706 2.44452 14.1706C2.3388 14.1706 2.23308 14.1706 2.0658 14.1706C2.61904 12.9194 3.2599 11.7701 4.00405 10.652Z" fill="#69A3FF"/>
<path d="M16.6707 38.6683C18.613 38.6683 20.5261 38.6666 22.4392 38.671C22.6297 38.6715 22.8258 38.6877 23.0097 38.7342C23.6236 38.8897 23.8868 39.2136 23.946 39.8916C24.0108 40.6326 24.0018 41.3804 24.0129 42.1255C24.0249 42.9265 24.5992 43.5086 25.4018 43.5088C29.4417 43.5099 33.4816 43.5093 37.5214 43.5093C37.627 43.5093 37.7325 43.5093 37.8381 43.5093C35.8501 45.0208 33.6532 46.113 31.2876 46.8668C28.9151 47.6228 26.4805 47.9897 23.9564 48.0006C23.9564 47.3128 23.9627 46.6549 23.9541 45.9971C23.9488 45.5923 23.9289 45.1871 23.9014 44.7831C23.8477 43.9951 23.1775 43.5705 22.4378 43.5696C18.5922 43.5653 14.7465 43.5533 10.9011 43.5823C10.291 43.5869 9.80102 43.4485 9.35886 43.0477C8.4303 42.2059 7.47044 41.3972 6.56892 40.5278C6.03795 40.0156 5.59352 39.4135 5.11271 38.8497C5.07803 38.8091 5.06412 38.7507 5.02539 38.6683C8.91928 38.6683 12.7804 38.6683 16.6707 38.6683Z" fill="#69A3FF"/>
<path d="M42.6953 9.3301C37.0169 9.3301 31.364 9.33131 25.7112 9.32621C25.4545 9.32598 25.1897 9.29928 24.9428 9.23247C24.2905 9.0559 23.9616 8.58189 23.9572 7.85618C23.9535 7.24388 23.9742 6.63085 23.9505 6.01945C23.9333 5.57729 23.8651 5.14484 23.5011 4.81313C23.1507 4.49373 22.7264 4.4361 22.2952 4.43527C18.3421 4.42764 14.389 4.43078 10.4358 4.43078C10.3334 4.43078 10.231 4.43078 10.1286 4.43078C10.1184 4.40605 10.1082 4.38131 10.098 4.35658C10.6508 4.0061 11.1961 3.64308 11.7577 3.30753C13.3298 2.36836 14.9859 1.60188 16.7409 1.08466C17.8476 0.758506 18.9798 0.495559 20.1173 0.304515C21.1465 0.131671 22.1974 0.0797335 23.2409 0.00449163C23.7553 -0.0326052 23.9327 0.157063 23.954 0.686273C23.9827 1.40179 24.0053 2.11787 24.0123 2.83388C24.0221 3.83495 24.549 4.36764 25.5446 4.3733C28.5523 4.3904 31.56 4.4171 34.5677 4.42729C35.4773 4.43038 36.3879 4.40781 37.2965 4.36501C37.6874 4.34659 37.9955 4.45928 38.2995 4.69373C39.4326 5.56768 40.5125 6.50114 41.4889 7.54751C41.9675 8.06051 42.4048 8.6122 42.8583 9.14857C42.8933 9.18999 42.9077 9.24889 42.9461 9.3301C42.8491 9.3301 42.785 9.3301 42.6953 9.3301Z" fill="#69A3FF"/>
</svg>
